<?xml version="1.0" encoding="UTF-8" standalone="no"?>
<!DOCTYPE svg PUBLIC "-//W3C//DTD SVG 1.0//EN" "http://www.w3.org/TR/2001/REC-SVG-20010904/DTD/svg10.dtd">
<!-- Created with Inkscape (http://www.inkscape.org/) -->
<svg
   xmlns:svg="http://www.w3.org/2000/svg"
   xmlns="http://www.w3.org/2000/svg"
   version="1.0"
   width="800"
   height="600"
   id="svg2">
  <defs
     id="defs4" />
  <g
     id="layer1">
    <path
       d="M 84.960884,353.12168 L 98.174387,353.12168 L 98.174387,410.81155 C 98.174296,420.84659 97.039115,428.81556 94.768843,434.71846 C 92.498397,440.6214 88.400399,445.42322 82.474836,449.12391 C 76.549128,452.82459 68.773148,454.67494 59.146876,454.67494 C 49.792947,454.67494 42.141836,453.06298 36.193524,449.83906 C 30.245157,446.61517 25.999583,441.94958 23.456797,435.84229 C 20.913981,429.73503 19.642579,421.39148 19.64259,410.81155 L 19.64259,353.12168 L 32.856092,353.12168 L 32.856092,410.74346 C 32.856067,419.41625 33.662047,425.80732 35.274028,429.91665 C 36.885956,434.02601 39.655795,437.19317 43.58355,439.41812 C 47.511236,441.64307 52.313046,442.75556 57.988993,442.75553 C 67.706079,442.75556 74.630672,440.55331 78.762796,436.1488 C 82.894779,431.74429 84.960808,423.27586 84.960884,410.74346 L 84.960884,353.12168 z M 118.67575,452.97215 L 118.67575,380.63845 L 129.70971,380.63845 L 129.70971,390.92321 C 135.02232,382.97701 142.69614,379.00387 152.73117,379.0038 C 157.09021,379.00387 161.0974,379.78715 164.75273,381.35361 C 168.40797,382.92024 171.14372,384.9749 172.96007,387.51767 C 174.77631,390.0605 176.04769,393.0801 176.77428,396.5764 C 177.22828,398.84682 177.45533,402.81992 177.45541,408.49577 L 177.45541,452.97215 L 165.19545,452.97215 L 165.19545,408.97257 C 165.1954,403.97781 164.71862,400.24309 163.76512,397.76832 C 162.81152,395.29369 161.1201,393.31848 158.69087,391.84268 C 156.26153,390.36701 153.41223,389.62916 150.14296,389.62909 C 144.92109,389.62916 140.41443,391.28652 136.62296,394.60116 C 132.83143,397.91594 130.93568,404.20486 130.9357,413.46787 L 130.9357,452.97215 L 118.67575,452.97215 z M 196.39022,367.22061 L 196.39022,353.12168 L 208.65017,353.12168 L 208.65017,367.22061 L 196.39022,367.22061 z M 196.39022,452.97215 L 196.39022,380.63845 L 208.65017,380.63845 L 208.65017,452.97215 L 196.39022,452.97215 z M 247.47336,452.97215 L 219.95659,380.63845 L 232.89762,380.63845 L 248.42689,423.95694 C 250.10695,428.6339 251.65078,433.49248 253.05845,438.53268 C 254.14818,434.71846 255.66931,430.13233 257.62185,424.77429 L 273.69601,380.63845 L 286.29651,380.63845 L 258.91596,452.97215 L 247.47336,452.97215 z M 346.6427,429.67826 L 359.31133,431.24479 C 357.31335,438.6462 353.61267,444.39022 348.20926,448.47685 C 342.80575,452.56351 335.90384,454.60681 327.50357,454.60681 C 316.92364,454.60681 308.53466,451.34886 302.33661,444.83292 C 296.13852,438.31699 293.03946,429.1788 293.0395,417.41831 C 293.03946,405.24922 296.17259,395.80452 302.43877,389.08419 C 308.70495,382.36401 316.83285,379.00387 326.82245,379.0038 C 336.49414,379.00387 344.39501,382.29588 350.52504,388.87987 C 356.65493,395.46397 359.71993,404.72702 359.72,416.6691 C 359.71993,417.39565 359.69723,418.48541 359.65187,419.93841 L 305.70809,419.93841 C 306.16215,427.88468 308.4098,433.96925 312.45107,438.1921 C 316.4923,442.41498 321.53246,444.52641 327.57167,444.52641 C 332.06693,444.52641 335.90384,443.34586 339.0824,440.98465 C 342.26085,438.6235 344.78095,434.85469 346.6427,429.67826 L 346.6427,429.67826 z M 306.38921,409.85801 L 346.77892,409.85801 C 346.23399,403.77349 344.69016,399.21006 342.1474,396.16772 C 338.24232,391.44544 333.17942,389.08427 326.95867,389.08419 C 321.32815,389.08427 316.59446,390.96867 312.75759,394.73738 C 308.92064,398.50624 306.79785,403.54644 306.38921,409.85801 L 306.38921,409.85801 z M 374.63627,452.97215 L 374.63627,380.63845 L 385.67021,380.63845 L 385.67021,391.60429 C 388.48545,386.47334 391.08501,383.0905 393.46892,381.45577 C 395.85276,379.82118 398.47502,379.00387 401.3357,379.0038 C 405.46772,379.00387 409.66791,380.32068 413.93623,382.95424 L 409.71334,394.32875 C 406.71644,392.5579 403.71957,391.67246 400.72271,391.67242 C 398.04365,391.67246 395.63708,392.47844 393.50295,394.09033 C 391.36879,395.70236 389.84766,397.93868 388.93956,400.79925 C 387.57731,405.1584 386.89619,409.92615 386.89623,415.10253 L 386.89623,452.97215 L 374.63627,452.97215 z M 416.45633,431.38102 L 428.58006,429.47391 C 429.26114,434.33252 431.15688,438.05591 434.26731,440.6441 C 437.37767,443.23233 441.72542,444.52641 447.31055,444.52641 C 452.941,444.52641 457.11846,443.37989 459.84291,441.0868 C 462.56733,438.79376 463.92954,436.10341 463.92958,433.01567 C 463.92954,430.24586 462.72625,428.06634 460.31972,426.47704 C 458.63959,425.38732 454.46214,424.00238 447.78732,422.32229 C 438.79664,420.05197 432.56453,418.0881 429.09089,416.43071 C 425.61722,414.77336 422.98359,412.48031 421.19001,409.5515 C 419.39643,406.6228 418.49966,403.38751 418.49966,399.84571 C 418.49966,396.62187 419.23751,393.63633 420.71325,390.88914 C 422.18898,388.14206 424.19825,385.86035 426.74108,384.044 C 428.64815,382.63643 431.24771,381.44451 434.53976,380.46817 C 437.83174,379.492 441.36217,379.00387 445.13099,379.0038 C 450.80684,379.00387 455.79028,379.82118 460.08133,381.45577 C 464.37224,383.0905 467.5394,385.30412 469.58277,388.09659 C 471.62606,390.88921 473.03367,394.62393 473.80565,399.30081 L 461.81815,400.93547 C 461.27322,397.21216 459.69532,394.30608 457.08443,392.21728 C 454.47347,390.12863 450.78415,389.08427 446.01643,389.08419 C 440.3859,389.08427 436.36737,390.0151 433.9608,391.87674 C 431.55423,393.73849 430.3509,395.91804 430.35094,398.41537 C 430.3509,400.00467 430.85041,401.43501 431.84937,402.70635 C 432.84831,404.02324 434.41487,405.113 436.54903,405.97567 C 437.77498,406.42981 441.38487,407.47418 447.37864,409.1088 C 456.0514,411.42458 462.10189,413.32035 465.53017,414.79605 C 468.95837,416.27183 471.64876,418.41732 473.60134,421.23253 C 475.55377,424.04777 476.53004,427.54414 476.53007,431.7216 C 476.53004,435.80826 475.33808,439.6565 472.95428,443.26636 C 470.57033,446.87626 467.13073,449.6688 462.63546,451.644 C 458.14012,453.61921 453.05449,454.60681 447.37864,454.60681 C 437.97933,454.60681 430.81634,452.6543 425.88967,448.7493 C 420.963,444.84429 417.81854,439.05488 416.45633,431.38102 L 416.45633,431.38102 z M 491.17393,367.22061 L 491.17393,353.12168 L 503.43389,353.12168 L 503.43389,367.22061 L 491.17393,367.22061 z M 491.17393,452.97215 L 491.17393,380.63845 L 503.43389,380.63845 L 503.43389,452.97215 L 491.17393,452.97215 z M 548.9319,442.00631 L 550.70278,452.83592 C 547.25181,453.56244 544.16411,453.92572 541.43969,453.92572 C 536.98979,453.92572 533.53882,453.2219 531.08685,451.81429 C 528.63484,450.40665 526.90939,448.55631 525.91042,446.26323 C 524.91146,443.97018 524.41199,439.14567 524.41199,431.78969 L 524.41199,390.17395 L 515.42135,390.17395 L 515.42135,380.63845 L 524.41199,380.63845 L 524.41199,362.72531 L 536.60385,355.36933 L 536.60385,380.63845 L 548.9319,380.63845 L 548.9319,390.17395 L 536.60385,390.17395 L 536.60385,432.47081 C 536.60381,435.96718 536.8195,438.21483 537.25091,439.21376 C 537.68224,440.21273 538.38606,441.00738 539.36233,441.59764 C 540.33857,442.18797 541.73484,442.48311 543.55115,442.48308 C 544.91333,442.48311 546.70691,442.32419 548.9319,442.00631 L 548.9319,442.00631 z M 560.30644,480.8295 L 558.94423,469.31876 C 561.62326,470.04525 563.9617,470.40852 565.95963,470.40852 C 568.68405,470.40852 570.86361,469.95445 572.49826,469.04631 C 574.13292,468.13818 575.47243,466.86676 576.51683,465.2321 C 577.28871,464.00612 578.53743,460.96382 580.26292,456.10528 C 580.48993,455.42415 580.85318,454.42519 581.35268,453.10837 L 553.90404,380.63845 L 567.11752,380.63845 L 582.17002,422.5266 C 584.12249,427.83929 585.87068,433.42438 587.41454,439.28189 C 588.82215,433.6514 590.5022,428.15713 592.45478,422.79905 L 607.91591,380.63845 L 620.17587,380.63845 L 592.65909,454.19817 C 589.70759,462.14441 587.4145,467.61598 585.77988,470.61288 C 583.60033,474.65407 581.10293,477.61691 578.28772,479.50132 C 575.47243,481.38569 572.11229,482.3279 568.20728,482.32793 C 565.84611,482.3279 563.21248,481.82843 560.30644,480.8295 L 560.30644,480.8295 z M 664.72034,416.80532 C 664.72034,403.41021 668.44372,393.48877 675.89049,387.04086 C 682.11128,381.68289 689.69428,379.00387 698.63952,379.0038 C 708.58365,379.00387 716.71155,382.26182 723.0232,388.77772 C 729.33474,395.29369 732.49053,404.29565 732.4906,415.78365 C 732.49053,425.09217 731.09426,432.41405 728.30182,437.74939 C 725.5092,443.08474 721.44523,447.22817 716.10996,450.1796 C 710.77458,453.13107 704.9511,454.60681 698.63952,454.60681 C 688.51369,454.60681 680.32903,451.36022 674.08558,444.86699 C 667.84206,438.37375 664.72034,429.01988 664.72034,416.80532 L 664.72034,416.80532 z M 677.32083,416.80532 C 677.32083,426.06841 679.34143,433.00434 683.3827,437.61317 C 687.42393,442.222 692.50952,444.52641 698.63952,444.52641 C 704.72404,444.52641 709.78694,442.21067 713.82824,437.5791 C 717.86944,432.94758 719.89003,425.88678 719.89011,416.39665 C 719.89003,407.45148 717.85807,400.67443 713.79418,396.06556 C 709.73021,391.45677 704.67865,389.15236 698.63952,389.15232 C 692.50952,389.15236 687.42393,391.44544 683.3827,396.0315 C 679.34143,400.6177 677.32083,407.54227 677.32083,416.80532 L 677.32083,416.80532 z M 749.85888,452.97215 L 749.85888,390.17395 L 739.02927,390.17395 L 739.02927,380.63845 L 749.85888,380.63845 L 749.85888,372.94193 C 749.85888,368.08343 750.29025,364.47357 751.153,362.11232 C 752.33355,358.9339 754.41095,356.35704 757.38511,354.38173 C 760.35928,352.4066 764.52537,351.419 769.88345,351.4189 C 773.33439,351.419 777.1486,351.82768 781.32609,352.64492 L 779.48708,363.3383 C 776.94425,362.88431 774.53767,362.65729 772.26736,362.65718 C 768.54394,362.65729 765.91031,363.4519 764.36649,365.04106 C 762.82262,366.63043 762.0507,369.6046 762.0507,373.9636 L 762.0507,380.63845 L 776.14967,380.63845 L 776.14967,390.17395 L 762.0507,390.17395 L 762.0507,452.97215 L 749.85888,452.97215 z"
       id="text4411"
       style="font-size:38.53231812px;font-style:normal;font-variant:normal;font-weight:normal;font-stretch:normal;text-align:start;line-height:100%;writing-mode:lr-tb;text-anchor:start;fill:#00519f;fill-opacity:1;stroke:none;stroke-width:1px;stroke-linecap:butt;stroke-linejoin:miter;stroke-opacity:1;font-family:Arial;-inkscape-font-specification:Arial" />
    <path
       d="M 19.642594,588.39375 L 19.642594,488.54325 L 91.840081,488.54325 L 91.840081,500.32644 L 32.856096,500.32644 L 32.856096,530.90821 L 88.093983,530.90821 L 88.093983,542.62326 L 32.856096,542.62326 L 32.856096,576.61057 L 94.155847,576.61057 L 94.155847,588.39375 L 19.642594,588.39375 z M 158.18003,579.47121 C 153.63926,583.33086 149.26882,586.05528 145.0687,587.64454 C 140.86849,589.23376 136.36183,590.02841 131.5487,590.02841 C 123.60241,590.02841 117.49515,588.08724 113.22688,584.20493 C 108.9586,580.32262 106.82446,575.36189 106.82446,569.32272 C 106.82446,565.78096 107.63043,562.54571 109.2424,559.6169 C 110.85434,556.6882 112.96578,554.33835 115.57671,552.56743 C 118.18761,550.79659 121.12772,549.45708 124.39706,548.5489 C 126.80362,547.91325 130.43619,547.30025 135.29479,546.70992 C 145.19352,545.52937 152.48138,544.12173 157.15837,542.48704 C 157.20372,540.80702 157.22643,539.73996 157.22648,539.28581 C 157.22643,534.29108 156.06854,530.77202 153.75283,528.72865 C 150.61968,525.95887 145.96544,524.57397 139.79011,524.57389 C 134.02336,524.57397 129.76644,525.58426 127.01933,527.60483 C 124.27217,529.62549 122.2402,533.20133 120.92341,538.33228 L 108.9359,536.69762 C 110.02567,531.56667 111.81925,527.42324 114.31665,524.26738 C 116.81404,521.11166 120.42391,518.68236 125.14628,516.97953 C 129.8686,515.27682 135.34016,514.42544 141.56099,514.42537 C 147.73633,514.42544 152.75382,515.15196 156.61348,516.60492 C 160.47304,518.05803 163.31099,519.88568 165.12734,522.08786 C 166.94356,524.29015 168.21495,527.07133 168.94154,530.43144 C 169.35014,532.5202 169.55449,536.28902 169.55453,541.73782 L 169.55453,558.08443 C 169.55449,569.48164 169.81558,576.69003 170.33781,579.7096 C 170.85994,582.7292 171.89294,585.6239 173.43687,588.39375 L 160.63202,588.39375 C 159.36056,585.85096 158.54324,582.87679 158.18003,579.47121 L 158.18003,579.47121 z M 157.15837,552.09067 C 152.70841,553.90698 146.03356,555.45085 137.13379,556.72219 C 132.09355,557.44874 128.52909,558.26609 126.44039,559.17419 C 124.35163,560.08237 122.73967,561.41051 121.60451,563.15866 C 120.46931,564.90688 119.90173,566.84805 119.90174,568.98214 C 119.90173,572.25149 121.13907,574.97591 123.61378,577.15547 C 126.08845,579.33502 129.70968,580.42478 134.47746,580.42478 C 139.19978,580.42478 143.39994,579.39179 147.07797,577.32572 C 150.7559,575.25973 153.45763,572.43311 155.18316,568.84592 C 156.49991,566.0761 157.15832,561.98948 157.15837,556.58597 L 157.15837,552.09067 z M 183.72159,566.80262 L 195.84532,564.89552 C 196.5264,569.75409 198.42218,573.47748 201.53257,576.06567 C 204.64297,578.6539 208.99068,579.94802 214.57581,579.94802 C 220.20626,579.94802 224.38372,578.80149 227.10821,576.50841 C 229.83259,574.21536 231.1948,571.52498 231.19484,568.43728 C 231.1948,565.66747 229.99151,563.48791 227.58498,561.89861 C 225.90485,560.80889 221.7274,559.42395 215.05258,557.74386 C 206.06194,555.47354 199.82978,553.50967 196.35615,551.85228 C 192.88248,550.19496 190.24889,547.90188 188.45531,544.97307 C 186.66169,542.04437 185.76492,538.80912 185.76492,535.26728 C 185.76492,532.04343 186.50277,529.0579 187.97854,526.31071 C 189.45424,523.56363 191.46351,521.28192 194.00634,519.46556 C 195.91341,518.05803 198.51297,516.86608 201.80502,515.88977 C 205.09704,514.91357 208.62743,514.42544 212.39625,514.42537 C 218.07214,514.42544 223.05558,515.24279 227.34659,516.87737 C 231.63754,518.5121 234.80466,520.72569 236.84806,523.51816 C 238.89132,526.31078 240.29893,530.04554 241.07091,534.72242 L 229.08341,536.35708 C 228.53848,532.63373 226.96058,529.72765 224.34973,527.63889 C 221.73876,525.5502 218.04941,524.50584 213.28169,524.50576 C 207.65116,524.50584 203.63263,525.43667 201.2261,527.29831 C 198.81949,529.16009 197.6162,531.33961 197.6162,533.83698 C 197.6162,535.42628 198.11567,536.85658 199.11463,538.12796 C 200.1136,539.44481 201.68013,540.53457 203.81429,541.39728 C 205.04027,541.85138 208.65013,542.89575 214.64394,544.53037 C 223.31666,546.84618 229.36715,548.74192 232.79546,550.21762 C 236.22363,551.69339 238.91402,553.83889 240.86659,556.6541 C 242.81903,559.46938 243.79529,562.96571 243.79537,567.14317 C 243.79529,571.22983 242.60334,575.07807 240.21954,578.68797 C 237.83559,582.29783 234.39602,585.09037 229.90076,587.06557 C 225.40538,589.04081 220.31979,590.02841 214.64394,590.02841 C 205.24459,590.02841 198.0816,588.07591 193.15497,584.17087 C 188.22826,580.26586 185.0838,574.47645 183.72159,566.80262 L 183.72159,566.80262 z M 285.13865,577.42788 L 286.90954,588.25753 C 283.45856,588.98405 280.37087,589.34729 277.64645,589.34729 C 273.19651,589.34729 269.74558,588.64347 267.29361,587.23586 C 264.8416,585.82822 263.11612,583.97788 262.11718,581.68483 C 261.11822,579.39179 260.61875,574.56727 260.61875,567.21126 L 260.61875,525.59556 L 251.62811,525.59556 L 251.62811,516.06002 L 260.61875,516.06002 L 260.61875,498.14688 L 272.81057,490.7909 L 272.81057,516.06002 L 285.13865,516.06002 L 285.13865,525.59556 L 272.81057,525.59556 L 272.81057,567.89238 C 272.81057,571.38875 273.02626,573.6364 273.45763,574.63537 C 273.889,575.63434 274.59279,576.42895 275.56909,577.01924 C 276.54529,577.60954 277.94156,577.90468 279.75788,577.90468 C 281.12009,577.90468 282.91367,577.74576 285.13865,577.42788 L 285.13865,577.42788 z M 336.76666,588.39375 L 336.76666,488.54325 L 349.98015,488.54325 L 349.98015,576.61057 L 399.15618,576.61057 L 399.15618,588.39375 L 336.76666,588.39375 z M 408.8279,552.22689 C 408.8279,538.83182 412.55129,528.91034 419.99809,522.46247 C 426.21885,517.10446 433.80184,514.42544 442.74712,514.42537 C 452.69125,514.42544 460.81915,517.68342 467.1308,524.19929 C 473.44234,530.71529 476.59813,539.71726 476.5982,551.20522 C 476.59813,560.51374 475.20186,567.83566 472.40938,573.17096 C 469.61676,578.50635 465.55283,582.64974 460.21756,585.60121 C 454.88214,588.55268 449.05866,590.02841 442.74712,590.02841 C 432.62129,590.02841 424.43663,586.78179 418.19315,580.28856 C 411.94966,573.79532 408.8279,564.44145 408.8279,552.22689 L 408.8279,552.22689 z M 421.42843,552.22689 C 421.4284,561.48998 423.44903,568.42595 427.4903,573.03474 C 431.53149,577.6436 436.61709,579.94802 442.74712,579.94802 C 448.83164,579.94802 453.89454,577.63224 457.93584,573.00071 C 461.977,568.36919 463.99763,561.30835 463.99771,551.81822 C 463.99763,542.87305 461.96567,536.09603 457.90178,531.48713 C 453.83778,526.87838 448.78621,524.57397 442.74712,524.57389 C 436.61709,524.57397 431.53149,526.86701 427.4903,531.45307 C 423.44903,536.03927 421.4284,542.96388 421.42843,552.22689 L 421.42843,552.22689 z M 491.03771,588.39375 L 491.03771,516.06002 L 502.07168,516.06002 L 502.07168,526.34478 C 507.38429,518.39858 515.05811,514.42544 525.09315,514.42537 C 529.45219,514.42544 533.45935,515.20872 537.11472,516.77521 C 540.76994,518.34181 543.50572,520.39647 545.32207,522.93924 C 547.13828,525.48211 548.4097,528.50167 549.13625,531.99797 C 549.59028,534.26839 549.8173,538.24152 549.81737,543.91738 L 549.81737,588.39375 L 537.55742,588.39375 L 537.55742,544.39414 C 537.55738,539.39941 537.08058,535.66466 536.12708,533.18992 C 535.17351,530.71529 533.48209,528.74005 531.05285,527.26428 C 528.62351,525.78858 525.7742,525.05073 522.50492,525.05066 C 517.28307,525.05073 512.7764,526.70809 508.98492,530.02277 C 505.1934,533.33755 503.29766,539.62643 503.29766,548.88944 L 503.29766,588.39375 L 491.03771,588.39375 z M 615.61244,588.39375 L 615.61244,579.26689 C 611.02627,586.44125 604.28328,590.02841 595.38351,590.02841 C 589.61679,590.02841 584.31548,588.43915 579.47964,585.26063 C 574.64376,582.08214 570.89767,577.6436 568.24135,571.94498 C 565.58502,566.24639 564.25688,559.69639 564.25688,552.29498 C 564.25688,545.0753 565.46017,538.5253 567.86674,532.64502 C 570.27331,526.76485 573.88321,522.25819 578.69639,519.12502 C 583.5095,515.992 588.89028,514.42544 594.83865,514.42537 C 599.19769,514.42544 603.08,515.34495 606.48561,517.18385 C 609.89108,519.02293 612.66093,521.41814 614.79512,524.36954 L 614.79512,488.54325 L 626.98695,488.54325 L 626.98695,588.39375 L 615.61244,588.39375 z M 576.85738,552.29498 C 576.85738,561.55811 578.80988,568.48271 582.71492,573.0688 C 586.61989,577.65493 591.22872,579.94802 596.5414,579.94802 C 601.89941,579.94802 606.45151,577.75713 610.19763,573.37532 C 613.94368,568.99351 615.81672,562.30732 615.81679,553.31665 C 615.81672,543.41795 613.90961,536.1528 610.09547,531.5212 C 606.28122,526.88971 601.58156,524.57397 595.99654,524.57389 C 590.54763,524.57397 585.99557,526.79892 582.34031,531.24875 C 578.68499,535.69873 576.85738,542.71413 576.85738,552.29498 L 576.85738,552.29498 z M 641.767,552.22689 C 641.767,538.83182 645.49038,528.91034 652.93719,522.46247 C 659.15794,517.10446 666.74094,514.42544 675.68621,514.42537 C 685.63035,514.42544 693.75824,517.68342 700.06989,524.19929 C 706.38144,530.71529 709.53722,539.71726 709.5373,551.20522 C 709.53722,560.51374 708.14095,567.83566 705.34847,573.17096 C 702.55585,578.50635 698.49193,582.64974 693.15665,585.60121 C 687.82124,588.55268 681.99776,590.02841 675.68621,590.02841 C 665.56038,590.02841 657.37573,586.78179 651.13224,580.28856 C 644.88876,573.79532 641.767,564.44145 641.767,552.22689 L 641.767,552.22689 z M 654.36753,552.22689 C 654.36749,561.48998 656.38813,568.42595 660.42939,573.03474 C 664.47059,577.6436 669.55618,579.94802 675.68621,579.94802 C 681.77074,579.94802 686.83363,577.63224 690.87494,573.00071 C 694.9161,568.36919 696.93673,561.30835 696.9368,551.81822 C 696.93673,542.87305 694.90476,536.09603 690.84087,531.48713 C 686.77687,526.87838 681.72531,524.57397 675.68621,524.57389 C 669.55618,524.57397 664.47059,526.86701 660.42939,531.45307 C 656.38813,536.03927 654.36749,542.96388 654.36753,552.22689 L 654.36753,552.22689 z M 723.97681,588.39375 L 723.97681,516.06002 L 735.01074,516.06002 L 735.01074,526.34478 C 740.32338,518.39858 747.99717,514.42544 758.03221,514.42537 C 762.39125,514.42544 766.39845,515.20872 770.05378,516.77521 C 773.709,518.34181 776.44478,520.39647 778.26113,522.93924 C 780.07734,525.48211 781.34875,528.50167 782.07535,531.99797 C 782.52934,534.26839 782.75636,538.24152 782.75643,543.91738 L 782.75643,588.39375 L 770.49648,588.39375 L 770.49648,544.39414 C 770.49644,539.39941 770.01968,535.66466 769.06618,533.18992 C 768.11257,530.71529 766.42115,528.74005 763.99191,527.26428 C 761.56257,525.78858 758.71326,525.05073 755.44402,525.05066 C 750.22212,525.05073 745.71546,526.70809 741.92401,530.02277 C 738.13246,533.33755 736.23672,539.62643 736.23676,548.88944 L 736.23676,588.39375 L 723.97681,588.39375 z"
       id="text4415"
       style="font-size:38.53231812px;font-style:normal;font-variant:normal;font-weight:normal;font-stretch:normal;text-align:start;line-height:100%;writing-mode:lr-tb;text-anchor:start;fill:#00519f;fill-opacity:1;stroke:none;stroke-width:1px;stroke-linecap:butt;stroke-linejoin:miter;stroke-opacity:1;font-family:Arial;-inkscape-font-specification:Arial" />
    <path
       d="M 21.826164,11.653785 L 21.826164,178.74421 C 21.826128,213.79116 23.949149,240.32261 28.274474,258.27337 C 31.257389,270.38312 37.431136,281.9626 46.827507,293.00374 C 56.223754,304.04495 68.995347,313.01864 85.177982,319.92826 C 101.36041,326.83788 125.12759,330.33606 156.44878,330.33606 C 182.40032,330.33606 203.46618,327.173 219.57434,320.83329 C 235.68206,314.49351 248.53079,305.95136 258.15107,295.2663 C 267.77084,284.58131 274.3687,271.42658 277.94851,255.89767 C 281.52778,240.36887 283.37831,213.86667 283.37867,176.25539 L 283.37867,11.653785 L 229.8845,11.653785 L 229.8845,184.96626 C 229.88429,209.75561 228.99497,227.56482 227.0563,238.24967 C 225.11712,248.93476 219.29291,257.83722 209.74767,265.17419 C 200.202,272.51131 173.31803,276.26079 154.5256,276.26076 C 136.03111,276.26079 111.16972,272.37302 100.50577,264.60855 C 89.841584,256.84415 83.089515,246.54665 80.25581,233.72454 C 78.615085,225.74651 77.766905,208.27249 77.766989,181.34616 L 77.766989,11.653785 L 21.826164,11.653785 z M 559.0722,14.255735 L 559.0722,324.90591 L 779.67228,324.90591 L 779.67228,272.18814 L 615.01302,272.18814 L 615.01302,14.255735 L 559.0722,14.255735 z"
       id="path4428"
       style="font-size:123.69880676px;font-style:normal;font-variant:normal;font-weight:bold;font-stretch:normal;text-align:start;line-height:100%;writing-mode:lr-tb;text-anchor:start;fill:#00519f;fill-opacity:1;stroke:none;stroke-width:1px;stroke-linecap:butt;stroke-linejoin:miter;stroke-opacity:1;font-family:Arial;-inkscape-font-specification:Arial Bold" />
    <path
       d="M 303.59858,324.95695 L 303.59858,11.672501 L 546.78416,11.672501 L 546.78416,64.67017 L 359.58102,64.67017 L 359.58102,134.1227 L 534.47946,134.1227 L 534.47946,186.90667 L 359.58102,186.90667 L 359.58102,272.17301 L 546.78416,272.17301 L 546.78416,324.95695 L 303.59858,324.95695 z"
       id="path4426"
       style="font-size:123.69880676px;font-style:normal;font-variant:normal;font-weight:bold;font-stretch:normal;text-align:start;line-height:100%;writing-mode:lr-tb;text-anchor:start;fill:#0097db;fill-opacity:1;stroke:none;stroke-width:1px;stroke-linecap:butt;stroke-linejoin:miter;stroke-opacity:1;font-family:Arial;-inkscape-font-specification:Arial Bold" />
  </g>
</svg>
