<svg width="275" height="59" viewBox="0 0 275 59" fill="none" xmlns="http://www.w3.org/2000/svg">
<g clip-path="url(#clip0_56_1545)">
<path d="M45.5073 27.5891C45.5073 27.1224 45.122 26.7349 44.6578 26.7349C44.5877 26.7349 44.5264 26.7437 44.4564 26.7613C36.9158 28.32 29.0599 28.9364 21.0113 28.4961C18.5328 28.364 16.0893 28.4961 13.6896 28.681C13.5057 28.6987 13.3218 28.7163 13.1466 28.7427C11.2199 29.0069 9.38948 29.8522 7.95318 31.2436C6.68327 32.4764 5.78996 34.0703 5.40461 35.7963C4.94919 37.8745 5.27324 40.0231 6.15779 41.9516C7.01607 43.8185 8.39107 45.4388 10.0901 46.6012C11.938 47.834 13.9787 48.8027 16.1156 49.4455C17.4643 49.8506 18.6642 50.0972 20.0742 50.2733C20.0917 49.7449 20.9062 48.9084 20.9325 48.5121C20.9587 48.1158 20.6522 47.7548 20.2581 47.7284C18.0511 47.8076 16.4309 47.7548 14.364 46.9887C12.2446 46.1961 10.3178 44.8928 8.79394 43.2109C8.05827 42.4095 7.45397 41.5201 7.06862 40.4987C6.68327 39.486 6.51687 38.394 6.57817 37.3109C6.78837 33.674 9.62595 30.6007 13.2517 30.0812C15.2573 29.7906 17.333 30.3101 18.9619 31.499C19.8115 32.1242 20.5471 32.9167 21.0814 33.8237C21.6857 34.8452 22.1936 35.9284 22.5439 37.0731C23.2796 39.4419 23.3409 42.0397 23.0256 44.4878C22.8855 45.5269 22.6753 46.5572 22.3775 47.561C22.2111 48.1334 22.0097 48.7058 21.782 49.2518C21.7382 49.3575 21.7207 49.4631 21.7207 49.5776C21.7207 50.0443 22.0885 50.4142 22.5527 50.423C22.6052 50.423 22.7103 50.423 22.7629 50.423C28.3417 50.423 33.4476 48.424 37.4062 45.113C37.4062 45.113 37.415 45.113 37.4237 45.1042C37.5814 44.9457 37.6777 44.7343 37.6777 44.5054C37.6777 44.3293 37.6164 44.1795 37.5376 44.0387C36.0575 41.4761 32.8258 37.7952 32.8258 37.7952C32.8258 37.7952 36.4779 41.0534 39.1052 42.48C39.2454 42.5593 39.403 42.6209 39.5782 42.6209C39.8146 42.6209 40.0248 42.524 40.1737 42.3743C40.1737 42.3655 40.1912 42.3567 40.2 42.3479C43.528 38.4116 45.5248 33.3394 45.5248 27.8004V27.5891" fill="#0B8BEE"/>
<path d="M4.30915 37.9537C3.40708 35.9724 2.85533 33.8237 2.72396 31.6487C2.70644 31.3581 2.7152 30.9618 2.70644 30.6624C2.70644 30.2573 2.37364 29.9227 1.97077 29.9227C1.56791 29.9227 0.700869 30.6624 0.0878119 30.6624C0.709627 35.444 2.8816 39.9703 6.24466 43.4487C7.8824 45.157 9.92301 46.4691 12.2351 47.0943C14.2232 47.6315 16.3251 47.3849 18.1642 46.4691C19.04 46.0288 19.8458 45.43 20.5201 44.7079C21.2295 43.9418 21.7813 43.0084 22.2892 42.1013C22.8235 41.1415 23.2877 40.1376 23.708 39.1249C24.1547 38.0418 24.5225 36.9322 25.013 35.8667C26.8609 31.8424 29.4708 28.1615 32.9915 25.4228C34.7168 24.0843 36.591 22.9572 38.5878 22.0766C39.6037 21.6275 40.6459 21.2488 41.7056 20.923C42.2136 20.7733 42.7303 20.6324 43.247 20.5091C43.7112 20.3682 43.9652 19.8751 43.8163 19.426C42.5201 16.1766 40.4533 13.2442 37.8346 10.9194C37.8171 10.9018 37.7996 10.893 37.7821 10.8754C37.6332 10.7433 37.4405 10.664 37.2216 10.664C36.9939 10.664 36.7924 10.8049 36.6085 10.9282C32.4135 13.8342 29.3131 18.6775 29.3131 18.6775C29.3131 18.6775 30.9509 14.5387 34.4453 9.43119C34.5329 9.30791 34.5679 9.1494 34.5679 8.99089C34.5679 8.7003 34.4278 8.44492 34.2088 8.29522C34.1826 8.27761 34.1563 8.26 34.1213 8.24239C31.9668 6.99194 29.6021 6.08492 27.1412 5.60059C25.3545 5.23955 23.5154 5.09865 21.6937 5.17791H21.6499C21.1945 5.19552 20.8442 5.56537 20.8267 6.02328C20.599 11.9673 21.7638 22.191 21.7638 22.191C21.7638 22.191 19.6794 12.117 17.6213 6.52522C17.4986 6.18179 17.1921 5.92642 16.8155 5.92642C16.763 5.92642 16.7017 5.92642 16.6491 5.94403C16.6491 5.94403 16.6404 5.94403 16.6316 5.94403C16.4827 5.98806 16.3338 6.02328 16.1937 6.06731C12.7606 7.08 9.58144 8.91164 6.98909 11.3597C6.54243 11.7824 6.11329 12.2227 5.70166 12.6806C5.69291 12.6894 5.68415 12.707 5.67539 12.707C5.53526 12.8567 5.44769 13.0593 5.44769 13.2794C5.44769 13.4995 5.52651 13.7549 5.70166 13.8782C10.1857 17.2685 13.4963 21.1343 13.4963 21.1343C13.4963 21.1343 9.2574 18.017 4.20405 16.0357C4.06393 15.9828 3.9238 15.9124 3.76616 15.9124C3.47714 15.9124 3.21441 16.0621 3.05676 16.2822C3.05676 16.2822 3.05676 16.291 3.05676 16.2998C2.32109 17.5327 1.70804 18.8448 1.22635 20.1921C0.604534 21.9269 0.210424 23.7233 0.0265064 25.5373C-0.0172834 26.004 -0.0523127 26.4795 0.429375 26.7349C0.62205 26.8406 0.823482 26.8582 1.03367 26.8142C1.34896 26.7525 1.65549 26.6909 1.97077 26.6381C3.17062 26.4443 4.39673 26.3475 5.60533 26.3651C8.04004 26.3915 10.4748 26.8318 12.7606 27.6772C14.8713 28.4609 16.798 29.6937 18.2518 31.4109C21.0018 34.6603 22.4644 40.2433 19.294 43.6952C17.849 45.2891 15.7033 46.064 13.5576 45.8703C12.4541 45.7646 11.4819 45.386 10.5185 44.8664C9.64275 44.3909 8.81074 43.8449 8.05756 43.1845C6.42858 41.7491 5.18495 39.8822 4.30039 37.9185" fill="#FFCD00"/>
<path d="M61.9357 15.6218C61.9357 13.0152 62.4874 12.7334 65.8592 12.3107V10.9106H52.6172V12.3107C55.9365 12.7334 56.5408 13.0064 56.5408 15.6218V32.3443C56.5408 40.3578 61.3839 44.0827 69.1347 44.0827C75.7295 44.0827 80.993 40.3578 80.993 32.4852V15.6658C80.993 13.0593 81.5885 12.7334 84.9166 12.3107V10.9106H74.442V12.3107C78.2693 12.6806 78.9173 13.0593 78.9173 15.6658V31.6487C78.9173 38.4997 75.3178 41.3352 69.6952 41.3352C64.6681 41.3352 61.9444 37.8393 61.9444 31.9745V15.6218H61.9357Z" fill="#0B8BEE"/>
<path d="M84.8989 10.9194L84.207 21.1255H85.4507C88.1744 14.4154 89.1903 12.4604 93.0176 12.4604H96.0128V39.0633C96.0128 41.6699 94.8129 41.8107 91.6338 42.2334V43.6336H105.752V42.2334C102.616 41.8107 101.416 41.6787 101.416 39.0633V12.4604H104.368C108.195 12.4604 109.211 14.4154 111.979 21.1255H113.178L112.486 10.9194H84.8989Z" fill="#0B8BEE"/>
<path d="M122.689 42.5505C118.582 42.5505 117.189 37.0996 117.189 30.6272C117.189 24.1548 119.125 20.289 122.908 20.289C127.06 20.289 128.908 25.6958 128.908 32.2123C128.908 38.7287 126.473 42.5505 122.689 42.5505ZM122.9 44.0915C129.354 44.0915 134.338 38.8255 134.338 30.8121C134.338 23.6352 129.862 18.7479 123.127 18.7479C116.392 18.7479 111.689 24.0139 111.689 31.9745C111.689 39.2394 116.165 44.0827 122.9 44.0827V44.0915Z" fill="#0B8BEE"/>
<path d="M143.35 30.3454L153.772 43.6248H159.403V42.6473L148.009 28.4345L154.648 22.2879C155.707 21.3104 156.583 20.9406 158.335 20.5619V19.2146H148.876V20.5619C151.048 20.7909 151.924 20.8878 151.924 21.7772C151.924 22.3848 151.416 22.9396 150.68 23.5912L143.35 30.3454ZM137.675 40.0848C137.675 41.8107 136.939 42.1366 134.627 42.2775V43.6248H145.881V42.2775C143.578 42.1366 142.833 41.8107 142.833 40.0848V7.15045H142.045L134.758 9.4312V10.1269L137.666 11.7119V40.0848H137.675Z" fill="#0B8BEE"/>
<path d="M172.075 38.3148L166.129 23.4063C165.945 22.8515 165.848 22.4728 165.848 22.103C165.848 21.0286 166.68 20.8437 169.027 20.5619V19.2146H157.773V20.5619C159.437 20.9846 159.709 21.3104 160.129 22.2879L169.676 44.3733L168.843 46.61C167.784 49.4983 166.216 50.194 163.72 50.194C162.433 50.194 161.741 50.0091 160.856 49.7713V51.5854C161.268 52.9855 162.792 53.8221 164.272 53.8221C167.179 53.8221 168.607 51.8231 169.991 48.2743L179.957 22.2791C180.325 21.3457 180.649 20.9758 182.313 20.5531V19.2058H174.659V20.5531C177.015 20.8349 177.838 21.0198 177.838 22.0942C177.838 22.464 177.742 22.8427 177.558 23.3975L172.066 38.306L172.075 38.3148Z" fill="#0B8BEE"/>
<path d="M192.307 42.5505C188.2 42.5505 186.36 37.0996 186.36 30.6272C186.36 24.1548 188.296 20.289 192.079 20.289C196.231 20.289 198.079 25.6958 198.079 32.2123C198.079 38.7287 196.099 42.5505 192.316 42.5505H192.307ZM192.079 44.0915C198.534 44.0915 203.517 38.8255 203.517 30.8121C203.517 23.6352 199.042 18.7479 192.307 18.7479C185.572 18.7479 180.869 24.0139 180.869 31.9745C180.869 39.2394 185.344 44.0827 192.079 44.0827V44.0915Z" fill="#0B8BEE"/>
<path d="M225.105 23.3798V22.9219C225.219 22.8691 230.185 19.5052 231.148 18.7831C231.394 18.6158 231.691 18.3957 231.945 18.3957C232.199 18.3957 232.138 18.7391 232.138 19.0209V37.5575C232.138 38.4469 232.497 38.7991 233.382 38.9928C233.793 39.0721 234.678 39.2306 234.949 39.2482V39.7061H225.386V39.2482C225.692 39.2218 227.015 39.0192 227.514 38.9312C228.363 38.7903 228.661 38.3148 228.661 37.3813V22.0149L225.105 23.3798Z" fill="black"/>
<path d="M237.236 34.8452C237.236 37.9537 239.066 38.667 240.993 38.667C243.191 38.667 245.53 37.1964 245.53 33.6036C245.53 29.1742 240.739 27.3513 238.567 27.0431C238.234 26.9903 238.041 26.8494 238.068 26.4884L238.698 19.1794C238.725 18.9064 238.917 18.8184 239.224 18.8184C239.224 18.8184 246.3 18.8272 246.852 18.8272C247.08 18.8272 247.85 18.6422 247.999 18.607C248.262 18.5542 248.306 18.651 248.28 18.9416C248.244 19.3379 247.938 22.737 247.938 22.737H247.483C247.5 21.83 247.264 21.1343 245.03 21.1343H240.135C240.073 21.1343 240.012 21.1872 240.012 21.2488L239.732 24.4101C239.732 24.4718 239.767 24.5334 239.837 24.5422C243.909 25.2291 248.752 27.4922 248.752 32.2563C248.752 35.9372 246.081 40.0319 239.705 40.0319C238.83 40.0319 237.805 39.8646 237.122 39.53C236.973 39.4507 236.859 39.3715 236.789 39.2746V34.81H237.244L237.236 34.8452Z" fill="black"/>
<path d="M258.342 40.0936C252.816 40.0936 250.994 33.7797 250.994 29.8522C250.994 23.4063 253.578 18.3957 258.78 18.3957C264.333 18.3957 266.128 24.2076 266.128 28.6106C266.128 35.6378 263.264 40.0936 258.342 40.0936ZM258.202 19.6373C256.083 19.6373 254.436 22.4904 254.436 28.7955C254.436 33.586 255.706 38.8431 258.868 38.8431C261.153 38.8431 262.695 35.8227 262.695 29.6849C262.695 24.6215 261.512 19.6373 258.211 19.6373H258.202Z" fill="black"/>
<path d="M217.461 36.1133L217.741 37.399L217.031 37.5575L216.27 34.0791L216.979 33.9206L217.259 35.2063L222.041 34.1584L222.234 35.0566L217.452 36.1133H217.461Z" fill="black"/>
<path d="M216.033 32.221L216.007 31.314L218.424 31.2524L218.371 29.2006L215.954 29.2622L215.928 28.3464L221.55 28.1967L221.577 29.1125L219.124 29.1742L219.177 31.226L221.629 31.1555L221.655 32.0625L216.033 32.2122V32.221Z" fill="black"/>
<path d="M216.13 26.1537L216.612 23.1773L217.321 23.2918L216.988 25.37L218.6 25.6342L218.871 23.9522L219.554 24.0667L219.283 25.7487L221.104 26.0481L221.455 23.8554L222.164 23.9698L221.665 27.0607L216.121 26.1537H216.13Z" fill="black"/>
<path d="M219.431 15.4545L222.838 17.0308C223.994 17.5679 224.327 18.4749 223.801 19.6285C223.302 20.7116 222.426 21.0903 221.279 20.5619L217.828 18.9681L218.213 18.1227L221.62 19.699C222.4 20.06 222.838 19.9279 223.127 19.3027C223.398 18.7039 223.258 18.2548 222.4 17.8585L219.037 16.3087L219.422 15.4633L219.431 15.4545Z" fill="black"/>
<path d="M220.588 13.4996L221.236 12.619L225.624 13.4819L222.383 11.0603L222.874 10.3911L227.384 13.7637L226.815 14.5299L222.094 13.5876L225.589 16.1942L225.098 16.8634L220.588 13.4908V13.4996Z" fill="black"/>
<path d="M224.291 8.91165L224.939 8.26001L228.898 12.2755L228.25 12.9272L224.291 8.91165Z" fill="black"/>
<path d="M228.792 5.09867L229.484 4.58792L231.612 10.0388L230.702 10.7169L226.139 7.08001L226.892 6.51643L230.623 9.58091L228.792 5.09867Z" fill="black"/>
<path d="M230.895 3.77776L233.575 2.43045L233.899 3.08209L232.025 4.02433L232.752 5.49493L234.267 4.73761L234.574 5.36284L233.059 6.12015L233.882 7.78448L235.861 6.78941L236.185 7.44105L233.4 8.8412L230.887 3.78657L230.895 3.77776Z" fill="black"/>
<path d="M235.449 1.68195L236.999 1.23284C238.077 0.915826 238.891 1.1712 239.18 2.18389L239.233 2.3512C239.469 3.16135 239.154 3.66329 238.611 4.00672L240.564 6.07612L239.618 6.34911L237.788 4.37657L237.218 4.54389L237.884 6.85986L237.017 7.11523L235.449 1.68195ZM237.718 3.70732C238.313 3.5312 238.541 3.18777 238.374 2.59777L238.331 2.43926C238.164 1.85807 237.788 1.74359 237.201 1.9109L236.518 2.11344L237.034 3.90986L237.718 3.70732Z" fill="black"/>
<path d="M240.913 4.34135L241.789 4.25329C241.894 4.89612 242.157 5.23956 242.893 5.16911C243.392 5.11627 243.716 4.78165 243.663 4.23568C243.602 3.64568 243.304 3.46075 242.516 3.29344C241.465 3.07329 240.887 2.72986 240.8 1.7612C240.712 0.880603 241.307 0.211349 242.306 0.114483C243.331 0.0176178 244.014 0.44911 244.171 1.4706L243.331 1.54986C243.217 0.959856 242.884 0.757319 242.376 0.810155C241.868 0.862991 241.614 1.16239 241.658 1.6115C241.702 2.09583 241.921 2.28075 242.753 2.45687C243.803 2.66821 244.452 2.98523 244.557 4.06836C244.653 5.07224 244.014 5.77672 242.971 5.87359C241.737 5.99687 241.08 5.40687 240.922 4.33254L240.913 4.34135Z" fill="black"/>
<path d="M245.976 0.0440369L246.895 0.0792607L246.668 5.73269L245.748 5.69747L245.976 0.0440369Z" fill="black"/>
<path d="M249.506 1.08314L248.219 0.862989L248.341 0.1409L251.836 0.7309L251.713 1.45299L250.417 1.23284L249.602 6.09373L248.7 5.94403L249.506 1.08314Z" fill="black"/>
<path d="M253.062 4.44703L252.589 0.907028L253.535 1.22404L253.797 3.79539L255.514 1.88449L256.346 2.16628L253.938 4.74643L253.176 7.0624L252.291 6.7718L253.053 4.45583L253.062 4.44703Z" fill="black"/>
<path d="M257.659 6.50761L258.272 5.57418C259.052 4.39418 260.339 4.13 261.469 4.88731C262.599 5.64463 262.853 6.91269 262.073 8.08388L261.46 9.01731C260.681 10.1885 259.42 10.4967 258.272 9.7306C257.116 8.95567 256.897 7.67 257.659 6.50761ZM260.672 8.49776L261.285 7.57314C261.802 6.7894 261.776 5.97045 261.066 5.49493C260.348 5.0106 259.612 5.26597 259.069 6.08493L258.456 7.01836C257.905 7.84612 258.001 8.64746 258.684 9.10537C259.385 9.57209 260.129 9.31672 260.672 8.49776Z" fill="black"/>
<path d="M264.849 7.59076L266.969 9.69539L266.461 10.2149L264.989 8.75315L263.737 10.03L264.911 11.2012L264.411 11.712L263.238 10.5408L261.556 12.2579L260.908 11.6151L264.858 7.59076H264.849Z" fill="black"/>
<path d="M268.993 13.5524L268.284 12.4516L268.888 12.0554L270.806 15.0494L270.202 15.4457L269.492 14.3361L265.367 17.0043L264.877 16.2294L268.993 13.5612V13.5524Z" fill="black"/>
<path d="M268.415 17.6296L269.44 17.2157C270.745 16.6873 271.953 17.2069 272.461 18.4661C272.969 19.7254 272.461 20.923 271.165 21.4514L270.14 21.8652C268.844 22.3936 267.627 21.9181 267.11 20.6324C266.593 19.3379 267.136 18.1491 268.415 17.6296ZM269.772 20.9846L270.797 20.5708C271.664 20.2185 272.102 19.5317 271.787 18.7391C271.463 17.929 270.718 17.7264 269.807 18.0875L268.783 18.5014C267.863 18.8712 267.495 19.5845 267.802 20.3506C268.117 21.1343 268.879 21.3457 269.781 20.9846H269.772Z" fill="black"/>
<path d="M273.756 22.6754L273.913 23.5824L271.4 24.0315L274.229 25.37L274.395 26.3299L271.452 24.8945L268.878 27.4042L268.694 26.3739L271.032 24.102L268.378 24.5775L268.221 23.6705L273.756 22.6842V22.6754Z" fill="black"/>
<path d="M271.314 29.1566L274.528 27.6419L274.51 28.6458L272.154 29.6673L274.475 30.7416L274.458 31.631L271.287 30.09L268.861 30.046L268.879 29.1125L271.305 29.1566H271.314Z" fill="black"/>
<path d="M271.094 32.1682L272.18 32.3796C273.564 32.6437 274.3 33.7357 274.046 35.0742C273.792 36.4127 272.723 37.1436 271.348 36.8794L270.262 36.6681C268.887 36.4039 268.116 35.3472 268.379 33.9822C268.642 32.6173 269.737 31.904 271.094 32.1682ZM270.429 35.7258L271.506 35.9372C272.425 36.1133 273.161 35.7699 273.319 34.9333C273.485 34.0791 272.968 33.4979 272.005 33.313L270.919 33.1016C269.947 32.9167 269.255 33.313 269.097 34.1231C268.94 34.9509 269.465 35.5497 270.429 35.7346V35.7258Z" fill="black"/>
<path d="M226.376 49.9827L227.059 50.5375C226.692 51.0658 226.639 51.4973 227.208 51.964C227.602 52.2811 228.067 52.2634 228.408 51.832C228.776 51.3652 228.688 51.0218 228.242 50.3525C227.646 49.4543 227.471 48.8115 228.067 48.0454C228.618 47.3497 229.503 47.2881 230.291 47.9221C231.097 48.5649 231.281 49.3575 230.685 50.2028L230.02 49.6657C230.352 49.1637 230.247 48.7851 229.845 48.4681C229.442 48.1511 229.056 48.1863 228.776 48.5385C228.478 48.9172 228.496 49.2078 228.969 49.9123C229.573 50.8017 229.818 51.4885 229.144 52.3339C228.513 53.1264 227.567 53.1705 226.753 52.5188C225.781 51.7351 225.72 50.8545 226.359 49.9827H226.376Z" fill="black"/>
<path d="M232.524 49.6129L233.312 50.0884L230.413 54.9317L229.625 54.4561L232.524 49.6129Z" fill="black"/>
<path d="M234.364 50.7488L235.371 51.1627L235.616 55.6625L237.149 51.9024L237.91 52.2194L235.774 57.4502L234.898 57.0891L234.644 52.2546L232.989 56.2966L232.227 55.9796L234.364 50.7488Z" fill="black"/>
<path d="M238.034 55.7594L238.235 54.6939C238.507 53.2761 239.584 52.5452 240.836 52.783C241.887 52.9855 242.605 53.6724 242.456 54.8964L241.554 54.7203C241.607 54.007 241.344 53.6196 240.696 53.4875C239.934 53.3378 239.356 53.8397 239.163 54.8524L238.962 55.9267C238.769 56.9482 239.085 57.5998 239.89 57.7584C240.512 57.8816 241.02 57.6263 241.23 56.869L242.097 57.0363C241.764 58.2867 240.862 58.7006 239.759 58.4893C238.375 58.2251 237.762 57.186 238.034 55.7506V55.7594Z" fill="black"/>
<path d="M243.778 53.2585L246.773 53.3114V54.0422L244.671 54.007L244.645 55.6537L246.335 55.6802V56.3758L244.636 56.3494L244.601 58.2075L246.808 58.2427V58.9736L243.682 58.9208L243.778 53.2673V53.2585Z" fill="black"/>
<path d="M250.102 53.7252L249.27 54.6499L249.104 53.8397L250.006 52.8006L250.803 52.6333L251.932 58.1723L251.039 58.3572L250.093 53.7252H250.102Z" fill="black"/>
<path d="M253.22 56.3494L253.141 56.1381C252.905 55.4864 253.106 54.9493 253.553 54.5794C253.054 54.5618 252.66 54.3064 252.458 53.7605L252.423 53.6636C252.099 52.7742 252.642 52.0521 253.457 51.7439C254.28 51.4357 255.147 51.647 255.462 52.5188L255.497 52.6245C255.699 53.1705 255.541 53.6284 255.173 53.9718C255.778 53.9542 256.259 54.2448 256.496 54.8788L256.575 55.0902C256.942 56.094 256.356 56.8602 255.436 57.2036C254.534 57.5382 253.579 57.3533 253.22 56.3582V56.3494ZM254.7 52.9679L254.657 52.8446C254.481 52.3779 254.105 52.2194 253.693 52.3779C253.282 52.5276 253.08 52.8887 253.264 53.3818L253.308 53.4963C253.483 53.9894 253.877 54.1391 254.289 53.9806C254.718 53.8221 254.884 53.4522 254.709 52.9679H254.7ZM255.708 55.3631L255.62 55.1342C255.41 54.5706 254.972 54.4033 254.499 54.5794C254.043 54.7467 253.772 55.1694 253.991 55.7506L254.079 55.9796C254.289 56.5519 254.744 56.7016 255.217 56.5255C255.699 56.3494 255.926 55.9443 255.708 55.3543V55.3631Z" fill="black"/>
<path d="M257.862 50.5551L255.891 51.6735L255.523 51.0218L258.466 49.3575L258.519 49.4543L259.692 55.1518L258.886 55.6097L257.853 50.5727L257.862 50.5551Z" fill="black"/>
<path d="M261.171 48.1687L259.41 49.5952L258.938 49.014L261.574 46.883L261.644 46.9711L263.737 52.3955L263.019 52.9767L261.171 48.1775V48.1687Z" fill="black"/>
<path d="M219.965 44.4437C220.114 44.3821 220.438 44.2236 220.657 44.1179C220.972 43.9594 221.217 43.8273 221.244 43.8097C221.296 43.7833 221.34 43.7921 221.366 43.8185C221.393 43.8449 221.384 43.8978 221.349 43.933C221.314 43.9682 221.147 44.0827 220.815 44.3645C220.368 44.7343 220.368 44.7608 220.21 44.8928C220.07 45.0073 220.079 45.0954 220.193 45.2187C220.263 45.2891 220.841 46.0288 221.944 46.3723C222.575 46.5748 223.337 46.6717 224.318 46.3546C224.37 46.337 224.44 46.3194 224.467 46.2402C224.493 46.1785 224.467 46.1169 224.37 46.0024C224.116 45.703 223.766 44.8312 223.766 44.0123C223.766 43.1493 224.432 42.3391 224.712 41.9957C224.764 41.934 224.799 41.89 224.773 41.846C224.756 41.8108 224.721 41.802 224.633 41.8108C224.379 41.8108 223.88 41.934 223.135 41.7051C222.785 41.5994 222.198 41.4057 221.594 40.9918C221.042 40.6131 220.692 40.1817 220.631 40.1024C220.569 40.032 220.526 39.9527 220.447 39.9527C220.368 39.9527 220.324 40.0055 220.245 40.1024C220.202 40.1552 219.921 40.4546 219.685 40.9214C219.466 41.344 219.299 41.9076 219.264 42.4448C219.203 43.5191 219.588 44.2676 219.615 44.3469C219.65 44.4349 219.694 44.4878 219.737 44.5054C219.807 44.523 219.851 44.5054 219.948 44.4525L219.965 44.4437Z" fill="#FFCD00"/>
<path d="M270.236 44.8752C270.114 44.7783 269.816 44.5582 269.623 44.4261C269.334 44.2236 269.107 44.0739 269.08 44.0562C269.037 44.0298 269.019 43.977 269.037 43.9418C269.054 43.9065 269.098 43.8801 269.142 43.8977C269.186 43.9154 269.361 44.0034 269.772 44.1619C270.307 44.3733 270.333 44.3645 270.526 44.4437C270.692 44.5054 270.762 44.4701 270.815 44.3028C270.841 44.206 271.209 43.343 270.99 42.207C270.858 41.5554 270.587 40.8333 269.842 40.1112C269.799 40.0759 269.755 40.0231 269.667 40.0319C269.606 40.0319 269.562 40.0936 269.51 40.2257C269.369 40.5955 268.774 41.3176 268.064 41.7139C267.311 42.1277 266.287 41.9252 265.857 41.8371C265.787 41.8195 265.726 41.8107 265.7 41.8548C265.682 41.89 265.691 41.9252 265.735 41.9957C265.866 42.2158 266.199 42.6033 266.357 43.3694C266.436 43.7304 266.541 44.3468 266.471 45.0689C266.401 45.7382 266.19 46.2489 266.155 46.3458C266.12 46.4339 266.076 46.5043 266.111 46.5836C266.147 46.654 266.217 46.6628 266.339 46.6892C266.4 46.7068 266.795 46.8037 267.32 46.7949C267.793 46.7949 268.371 46.6716 268.853 46.4339C269.825 45.9759 270.289 45.2803 270.342 45.2098C270.394 45.1394 270.429 45.0777 270.42 45.0249C270.403 44.9545 270.359 44.928 270.272 44.8576L270.236 44.8752Z" fill="#0B8BEE"/>
</g>
<defs>
<clipPath id="clip0_56_1545">
<rect width="275" height="59" fill="white"/>
</clipPath>
</defs>
</svg>
